{"title":"Little.Fockers.2010.DVDSCR.LiNE.XViD-DUST","uid":6165518,"size":736615491,"categoryP":"video","categoryS":"movies","magnet":"?xt=urn:btih:7fc0ff56a2f621e1bc53a4842e508251d221083e&amp;dn=Little.Fockers.2010.DVDSCR.LiNE.XViD-DUST&amp;tr=udp%3A%2F%2Ftracker.openbittorrent.com%3A80&amp;tr=udp%3A%2F%2Fopen.demonii.com%3A1337&amp;tr=udp%3A%2F%2Ftracker.coppersurfer.tk%3A6969&amp;tr=udp%3A%2F%2Fexodus.desync.com%3A6969","seeders":1,"leechers":0,"uploader":"TvTeam","files":4,"time":1297371653,"description":". \n  &lt;a href=&quot;\nhttp://www.torrentday.com/&quot; rel=&quot;nofollow&quot; target=&quot;_NEW&quot;&gt;\nhttp://www.torrentday.com/&lt;/a&gt;        :     The Hottest Private Tracker On The Net!!!\n &lt;a href=&quot;\nhttp://www.torrentday.com&quot; rel=&quot;nofollow&quot; target=&quot;_NEW&quot;&gt;\nhttp://www.torrentday.com&lt;/a&gt;          :     Once &amp; For all ;)\n\n\n               www . TorrentDay . Com \n\n(((((((((((((= Enjoy No RAR releases =))))))))))))))))))))\n\n\n...................................NFO:....................................\n\n.\n\nVideo Codec                      : XVID\nAudio Codec                      : MP3\nAudio Bitrate                    : 128 VBR\nResolution                       : 640 x 352\n\niMDB   : http://www.imdb.com/title/tt0970866/\nRating : 5,3/10   9.751 Votes\n\n\nVideo\nID                               : 0\nFormat                           : MPEG-4 Visual\nFormat profile                   : Advanced Simple@L5\nFormat settings, BVOP            : Yes\nFormat settings, QPel            : No\nFormat settings, GMC             : No warppoints\nFormat settings, Matrix          : Default (H.263)\nCodec ID                         : XVID\nCodec ID/Hint                    : XviD\nDuration                         : 1h 38mn\nBit rate                         : 861 Kbps\nWidth                            : 640 pixels\nHeight                           : 352 pixels\nDisplay aspect ratio             : 16:9\nFrame rate                       : 23.976 fps\nColor space                      : YUV\nChroma subsampling               : 4:2:0\nBit depth                        : 8 bits\nScan type                        : Progressive\nCompression mode                 : Lossy\nBits/(Pixel*Frame)               : 0.159\nStream size                      : 608 MiB (87%)\nWriting library                  : XviD 61\n\nAudio\nID                               : 1\nFormat                           : MPEG Audio\nFormat version                   : Version 1\nFormat profile                   : Layer 3\nMode                             : Joint stereo\nMode extension                   : MS Stereo\nCodec ID                         : 55\nCodec ID/Hint                    : MP3\nDuration                         : 1h 33mn\nBit rate mode                    : Variable\nBit rate                         : 128 Kbps\nChannel(s)                       : 2 channels\nSampling rate                    : 48.0 KHz\nCompression mode                 : Lossy\nStream size                      : 86.0 MiB (12%)\nAlignment                        : Aligned on interleaves\nInterleave, duration             : 25 ms (0.60 video frame)\nWriting library                  : LAME3.92 \n\n\n\n\n\n           Video has JH Watermark in the middle.","torrent":{"xt":"urn:btih:7fc0ff56a2f621e1bc53a4842e508251d221083e","amp;dn":"Little.Fockers.2010.DVDSCR.LiNE.XViD-DUST","amp;tr":["udp%3A%2F%2Ftracker.openbittorrent.com%3A80","udp%3A%2F%2Fopen.demonii.com%3A1337","udp%3A%2F%2Ftracker.coppersurfer.tk%3A6969","udp%3A%2F%2Fexodus.desync.com%3A6969"],"infoHash":"7fc0ff56a2f621e1bc53a4842e508251d221083e","infoHashBuffer":{"type":"Buffer","data":[127,192,255,86,162,246,33,225,188,83,164,132,46,80,130,81,210,33,8,62]},"announce":[],"urlList":[]}}